<mxfile host="app.diagrams.net" modified="2023-12-06T08:12:16.874Z" agent="Mozilla/5.0 (Windows NT 10.0; Win64; x64) AppleWebKit/537.36 (KHTML, like Gecko) Chrome/119.0.0.0 Safari/537.36 Edg/119.0.0.0" version="22.1.5" etag="23uIPqUIpazUZO1aFfW2" type="github">
  <diagram name="Page-1" id="MwaoGKFugZBv1zqjlACU">
    <mxGraphModel>
      <root>
        <mxCell id="0" />
        <mxCell id="1" parent="0" />
      </root>
    </mxGraphModel>
  </diagram>
</mxfile>
